<?xml version="1.0" standalone="no"?>
<!DOCTYPE svg PUBLIC "-//W3C//DTD SVG 20010904//EN"
 "http://www.w3.org/TR/2001/REC-SVG-20010904/DTD/svg10.dtd">
<svg version="1.0" xmlns="http://www.w3.org/2000/svg"
 width="200.000000pt" height="200.000000pt" viewBox="0 0 200.000000 200.000000"
 preserveAspectRatio="xMidYMid meet">

<g transform="translate(0.000000,200.000000) scale(0.100000,-0.100000)"
fill="#000000" stroke="none">
<path d="M833 1986 c-220 -42 -402 -142 -556 -306 -110 -116 -192 -262 -239
-425 -20 -70 -23 -102 -22 -255 0 -160 3 -183 27 -265 91 -304 320 -556 597
-659 154 -57 174 -61 365 -60 167 0 187 2 269 28 469 143 768 585 717 1058
-46 420 -337 761 -741 865 -119 31 -309 39 -417 19z m7 -981 l0 -445 -60 0
-60 0 0 445 0 445 60 0 60 0 0 -445z m570 383 l0 -58 -248 0 -248 0 -3 50 c-1
28 0 54 3 58 2 4 115 7 250 7 l246 0 0 -57z m-120 -383 l0 -65 -190 0 -190 0
0 65 0 65 190 0 190 0 0 -65z"/>
</g>
</svg>
