<?xml version="1.0" standalone="no"?>
<!DOCTYPE svg PUBLIC "-//W3C//DTD SVG 20010904//EN"
 "http://www.w3.org/TR/2001/REC-SVG-20010904/DTD/svg10.dtd">
<svg version="1.0" xmlns="http://www.w3.org/2000/svg"
 width="176.000000pt" height="177.000000pt" viewBox="0 0 176.000000 177.000000"
 preserveAspectRatio="xMidYMid meet">

<g transform="translate(0.000000,177.000000) scale(0.100000,-0.100000)"
fill="#000000" stroke="none">
<path d="M436 1507 c123 -26 213 -106 254 -224 8 -24 8 -25 -3 -9 -69 105
-120 147 -206 172 -108 32 -220 -3 -302 -94 -118 -131 -112 -329 13 -454 70
-71 126 -93 233 -93 56 0 98 5 110 13 17 11 15 11 -20 5 -114 -22 -207 9 -290
99 -30 32 -55 64 -55 70 0 7 19 -9 43 -33 65 -68 126 -94 217 -94 62 0 85 5
132 28 75 37 137 110 163 191 5 16 11 9 31 -35 31 -67 84 -123 149 -157 42
-22 63 -27 130 -27 67 0 88 5 131 27 28 15 70 48 92 73 28 32 39 39 35 24 -9
-34 -103 -123 -158 -148 -52 -25 -134 -32 -190 -18 -27 6 -28 6 -10 -5 12 -8
55 -13 110 -13 78 0 97 4 140 27 64 33 130 104 162 174 22 48 25 66 21 134
l-3 80 115 41 c63 23 121 46 128 52 15 12 16 69 0 85 -19 19 -43 15 -164 -30
-87 -33 -113 -47 -108 -58 2 -8 -16 8 -41 37 -66 75 -138 108 -235 108 -58 -1
-86 -6 -124 -25 -58 -28 -117 -85 -142 -138 -9 -20 -19 -32 -21 -25 -7 19 35
91 80 140 50 54 102 83 182 99 57 11 58 12 19 13 -51 1 -136 -24 -185 -55 -40
-25 -113 -110 -124 -144 -9 -29 -19 -25 -34 15 -17 48 -96 124 -157 152 -29
13 -78 25 -115 28 l-64 5 61 -13z m523 -120 c-2 -1 -13 -9 -24 -17 -19 -14
-19 -14 -6 3 7 9 18 17 24 17 6 0 8 -1 6 -3z m-465 -27 c73 -28 126 -111 126
-200 0 -152 -140 -258 -268 -204 -183 76 -173 351 15 411 38 12 85 9 127 -7z
m636 -5 c73 -37 113 -106 114 -195 1 -54 -4 -73 -27 -113 -41 -70 -95 -102
-171 -102 -76 0 -126 28 -167 93 -37 59 -45 116 -25 184 35 123 169 187 276
133z m70 -7 c0 -12 -6 -9 -26 13 -19 22 -19 22 4 8 12 -8 22 -17 22 -21z
m-329 -35 c-5 -10 -17 -27 -26 -38 -16 -19 -17 -19 -3 5 26 46 29 50 34 50 3
0 0 -8 -5 -17z m369 -13 c6 -11 8 -20 6 -20 -3 0 -10 9 -16 20 -6 11 -8 20 -6
20 3 0 10 -9 16 -20z m-423 -142 c-3 -8 -6 -5 -6 6 -1 11 2 17 5 13 3 -3 4
-12 1 -19z m450 -80 c-3 -8 -6 -5 -6 6 -1 11 2 17 5 13 3 -3 4 -12 1 -19z m-7
-26 c0 -5 -7 -17 -15 -28 -14 -18 -14 -17 -4 9 12 27 19 34 19 19z m-369 -68
c13 -14 17 -23 9 -19 -13 5 -46 45 -37 45 2 0 14 -11 28 -26z m44 -34 c3 -5 1
-10 -4 -10 -6 0 -11 5 -11 10 0 6 2 10 4 10 3 0 8 -4 11 -10z m92 -36 c-3 -3
-12 -4 -19 -1 -8 3 -5 6 6 6 11 1 17 -2 13 -5z m66 -1 c-7 -2 -19 -2 -25 0 -7
3 -2 5 12 5 14 0 19 -2 13 -5z"/>
<path d="M453 1264 c-9 -4 -9 -11 -1 -30 9 -19 8 -28 -6 -43 -18 -20 -55 -18
-57 3 0 6 -4 1 -9 -12 -15 -37 9 -94 51 -116 67 -36 129 1 136 81 6 60 -13 96
-59 112 -33 12 -37 12 -55 5z"/>
<path d="M957 1264 c-3 -3 -1 -14 5 -24 23 -36 -17 -74 -53 -51 -17 10 -19 8
-19 -24 0 -107 119 -153 175 -68 19 29 22 91 6 121 -19 36 -94 66 -114 46z"/>
<path d="M202 727 c-21 -23 -22 -31 -20 -142 l3 -118 110 1 110 1 3 85 c1 47
0 86 -3 86 -4 0 -26 -14 -51 -31 -28 -19 -44 -37 -42 -47 2 -11 -4 -17 -17
-17 -18 0 -20 7 -20 60 l0 60 68 3 68 3 -3 37 -3 37 -90 3 c-85 3 -92 2 -113
-21z"/>
<path d="M430 644 c0 -104 0 -104 33 -140 29 -31 38 -35 90 -37 l57 -2 0 38 0
37 -45 0 c-33 0 -45 4 -45 15 0 11 12 15 44 15 24 0 52 3 62 7 14 5 16 3 11
-11 -5 -12 5 -30 31 -58 35 -37 42 -40 95 -42 l57 -1 0 38 0 37 -45 0 c-32 0
-45 4 -45 14 0 10 16 15 55 18 l55 3 0 -105 0 -104 45 44 c35 35 45 51 45 77
0 40 5 41 34 6 l24 -28 148 0 149 0 3 90 3 90 -52 0 c-33 0 -54 5 -56 13 -3 9
11 12 52 12 l56 0 -3 38 -3 37 -99 0 -99 0 0 -89 0 -89 53 -1 c33 -1 55 -6 57
-13 4 -10 -12 -13 -55 -13 -58 0 -59 -1 -54 -25 7 -36 -7 -31 -54 23 l-42 47
34 36 c28 29 36 45 37 80 l2 44 -45 0 c-41 0 -45 -2 -48 -25 -3 -31 -22 -70
-34 -70 -4 0 -8 23 -8 50 l0 50 -45 0 -45 0 0 -55 0 -55 -55 0 c-42 0 -55 3
-55 15 0 11 12 15 45 15 l45 0 0 40 0 41 -92 -3 -91 -3 -1 -50 -1 -50 -54 0
c-35 0 -56 5 -58 13 -3 8 9 12 41 12 l46 0 0 39 0 40 -90 0 -90 0 0 -105z"/>
<path d="M907 370 l-57 -60 220 0 220 0 0 60 0 60 -164 0 -163 0 -56 -60z
m103 40 c0 -5 -8 -10 -17 -10 -16 -1 -16 -2 1 -12 19 -11 19 -11 1 -24 -17
-13 -17 -14 -2 -14 9 0 17 -4 17 -10 0 -5 -13 -10 -29 -10 -30 0 -31 2 -22 78
1 14 51 17 51 2z m38 -2 c9 -9 12 -9 12 0 0 7 7 12 15 12 11 0 15 -12 15 -45
0 -33 -4 -45 -15 -45 -8 0 -15 9 -15 19 0 11 -4 23 -10 26 -6 4 -9 -3 -7 -16
1 -12 -4 -24 -10 -26 -9 -3 -13 9 -13 41 0 47 7 55 28 34z m92 -3 c-10 -12
-10 -18 0 -30 10 -12 10 -18 0 -30 -16 -20 -40 -19 -40 1 0 8 5 12 10 9 14 -9
13 8 -2 23 -14 14 6 42 29 42 13 0 13 -3 3 -15z m42 -7 c5 -31 -2 -68 -13 -68
-5 0 -9 20 -9 45 0 46 16 63 22 23z m68 12 c0 -5 -3 -10 -8 -10 -4 0 -7 -16
-6 -35 1 -24 -2 -35 -12 -35 -9 0 -14 11 -14 29 0 16 -3 36 -6 45 -5 12 0 16
20 16 14 0 26 -4 26 -10z"/>
</g>
</svg>
