<?xml version="1.0" standalone="no"?>
<!DOCTYPE svg PUBLIC "-//W3C//DTD SVG 20010904//EN"
 "http://www.w3.org/TR/2001/REC-SVG-20010904/DTD/svg10.dtd">
<svg version="1.0" xmlns="http://www.w3.org/2000/svg"
 width="500.000000pt" height="500.000000pt" viewBox="0 0 500.000000 500.000000"
 preserveAspectRatio="xMidYMid meet">

<g transform="translate(0.000000,500.000000) scale(0.100000,-0.100000)"
fill="#000000" stroke="none">
<path d="M1731 3104 c-25 -32 -27 -61 -5 -92 40 -57 117 -43 130 24 9 49 -19
88 -68 92 -29 2 -40 -2 -57 -24z"/>
<path d="M2522 3123 c-21 -8 -43 -61 -36 -87 22 -89 144 -73 144 18 0 56 -54
91 -108 69z"/>
<path d="M3210 3110 c-37 -37 -22 -112 26 -130 56 -22 113 41 92 102 -18 50
-81 65 -118 28z"/>
<path d="M130 3010 l0 -60 95 0 95 0 0 -241 0 -241 47 -64 c26 -35 50 -64 54
-64 3 0 27 9 52 20 l46 20 -30 65 -29 65 0 220 0 220 95 0 95 0 0 60 0 60
-260 0 -260 0 0 -60z"/>
<path d="M1968 2927 c-32 -12 -58 -23 -58 -26 1 -3 45 -127 98 -276 l97 -270
69 0 68 0 50 140 c27 77 71 201 98 276 l48 136 -58 21 -58 21 -48 -137 c-26
-75 -59 -170 -74 -211 l-27 -74 -58 169 c-32 93 -65 188 -74 210 l-16 41 -57
-20z"/>
<path d="M1365 2915 c-33 -14 -61 -21 -63 -17 -12 34 -20 36 -69 21 -33 -10
-48 -20 -47 -32 0 -9 1 -134 2 -277 l2 -260 65 0 65 0 0 209 0 209 38 23 c24
15 54 23 87 23 l50 1 3 -232 2 -233 65 0 65 0 0 241 c0 275 -4 296 -71 329
-52 27 -120 25 -194 -5z"/>
<path d="M2770 2922 c-44 -24 -70 -73 -70 -135 0 -56 18 -95 60 -130 34 -29
44 -33 155 -61 69 -18 80 -24 83 -45 15 -106 -113 -122 -225 -27 l-32 27 -26
-51 c-25 -50 -26 -53 -9 -71 10 -11 47 -34 83 -52 56 -27 76 -32 137 -31 135
2 210 74 202 197 -6 91 -50 134 -166 164 -144 36 -132 30 -132 69 0 53 30 62
127 37 43 -11 86 -23 95 -27 13 -6 22 3 42 42 l25 49 -37 17 c-106 48 -250 60
-312 28z"/>
<path d="M3528 2926 c-108 -40 -118 -64 -118 -288 0 -207 7 -229 85 -268 42
-21 64 -25 135 -25 71 0 93 4 134 25 88 44 91 52 91 275 0 219 -4 231 -81 270
-50 25 -192 32 -246 11z m180 -122 c21 -14 22 -22 22 -163 0 -175 0 -176 -95
-176 -95 0 -95 1 -95 176 0 141 1 149 22 163 13 10 43 16 73 16 30 0 60 -6 73
-16z"/>
<path d="M4160 2931 c-14 -5 -41 -16 -59 -26 -34 -17 -35 -17 -53 5 -18 23
-20 23 -66 8 -32 -10 -46 -19 -43 -29 3 -8 7 -132 9 -276 l4 -263 59 0 59 0 0
208 0 209 49 26 c59 33 116 36 131 8 6 -12 10 -106 10 -235 l0 -216 66 0 66 0
-4 243 c-3 222 -5 245 -23 277 -35 60 -123 86 -205 61z"/>
<path d="M4523 2925 c-47 -20 -73 -68 -73 -133 0 -109 49 -158 188 -191 46
-11 90 -25 98 -32 39 -33 -8 -109 -68 -109 -40 0 -102 28 -145 64 l-32 27 -27
-53 -27 -52 39 -33 c82 -71 219 -89 315 -40 114 58 118 236 8 300 -24 14 -80
33 -124 42 -44 10 -86 22 -92 28 -19 14 -16 44 8 68 17 17 28 19 67 13 26 -3
72 -15 102 -25 30 -11 56 -19 57 -19 1 0 14 22 27 49 l25 49 -47 20 c-99 42
-237 54 -299 27z"/>
<path d="M640 2684 c0 -230 1 -249 20 -279 22 -35 81 -65 129 -65 37 0 150 35
176 54 19 14 22 12 51 -22 l32 -37 46 22 c25 13 46 26 46 30 0 5 -14 32 -30
62 l-30 54 0 214 0 213 -60 0 -60 0 0 -205 0 -205 -40 -26 c-50 -34 -120 -43
-143 -19 -15 14 -17 44 -17 236 l0 219 -60 0 -60 0 0 -246z"/>
<path d="M1720 2640 l0 -290 65 0 65 0 0 290 0 290 -65 0 -65 0 0 -290z"/>
<path d="M2492 2643 l3 -288 63 -3 62 -3 0 291 0 290 -65 0 -65 0 2 -287z"/>
<path d="M3200 2640 l0 -290 60 0 60 0 0 290 0 290 -60 0 -60 0 0 -290z"/>
<path d="M1300 2080 c0 -80 4 -130 10 -130 6 0 10 28 10 65 l0 64 68 4 67 3
-67 2 -68 2 0 55 0 54 78 4 77 3 -87 2 -88 2 0 -130z"/>
<path d="M1569 2195 c-58 -31 -77 -135 -36 -196 94 -140 284 -7 211 147 -9 19
-29 41 -45 49 -35 19 -96 19 -130 0z m121 -10 c18 -9 34 -30 45 -59 15 -39 16
-50 4 -88 -15 -46 -64 -88 -104 -88 -40 0 -89 42 -104 88 -12 38 -11 49 4 88
26 68 90 93 155 59z"/>
<path d="M1820 2128 c0 -109 13 -154 50 -173 63 -33 133 -8 149 53 13 46 14
202 2 202 -5 0 -11 -50 -13 -111 -3 -97 -5 -112 -23 -125 -48 -35 -113 -24
-134 22 -6 14 -11 67 -11 119 0 57 -4 95 -10 95 -6 0 -10 -34 -10 -82z"/>
<path d="M2100 2081 c0 -165 18 -177 22 -15 l3 117 79 -117 c44 -64 86 -116
93 -116 10 0 13 29 13 130 0 166 -18 175 -22 11 l-3 -119 -80 116 c-45 64 -86
117 -93 120 -9 3 -12 -29 -12 -127z"/>
<path d="M2380 2081 l0 -131 65 0 c35 0 75 5 88 11 37 17 57 60 57 123 0 47
-4 61 -29 88 -27 30 -34 33 -105 36 l-76 4 0 -131z m169 85 c22 -23 26 -35 26
-87 0 -56 -3 -63 -33 -90 -27 -25 -41 -29 -87 -29 l-55 0 0 121 0 122 61 -6
c49 -4 67 -11 88 -31z"/>
<path d="M2730 2188 c-50 -117 -96 -238 -90 -238 4 0 15 18 24 40 l16 40 65 0
65 0 16 -40 c9 -22 20 -40 24 -40 4 0 -15 58 -43 130 -29 71 -55 130 -60 130
-4 0 -12 -10 -17 -22z m66 -123 c6 -24 5 -25 -50 -25 -31 0 -56 3 -56 7 0 4
12 39 27 77 l27 69 23 -51 c12 -29 25 -63 29 -77z"/>
<path d="M2903 2203 l47 -4 0 -125 c0 -76 4 -124 10 -124 6 0 10 48 10 124 l0
125 48 4 c26 2 0 3 -58 3 -58 0 -84 -1 -57 -3z"/>
<path d="M3114 2080 c0 -74 1 -105 3 -67 2 37 2 97 0 135 -2 37 -3 6 -3 -68z"/>
<path d="M3249 2195 c-58 -31 -77 -135 -36 -196 94 -140 284 -7 211 147 -9 19
-29 41 -45 49 -35 19 -96 19 -130 0z m121 -10 c18 -9 34 -30 45 -59 15 -39 16
-50 4 -88 -15 -46 -64 -88 -104 -88 -40 0 -89 42 -104 88 -12 38 -11 49 4 88
26 68 90 93 155 59z"/>
<path d="M3500 2080 c0 -80 4 -130 10 -130 6 0 10 45 10 114 0 63 3 121 6 130
4 11 1 16 -10 16 -14 0 -16 -17 -16 -130z"/>
<path d="M3688 2093 l-3 -118 -74 108 c-41 59 -76 105 -79 103 -7 -8 152 -235
166 -236 9 0 12 33 12 130 0 165 -18 175 -22 13z"/>
<path d="M125 2020 c-4 -7 173 -10 524 -10 347 0 531 3 531 10 0 14 -1046 14
-1055 0z"/>
<path d="M3805 2020 c-4 -7 173 -10 524 -10 347 0 531 3 531 10 0 7 -181 10
-524 10 -339 0 -527 -4 -531 -10z"/>
</g>
</svg>
